<svg width="24" height="24" viewBox="0 0 24 24" fill="none" xmlns="http://www.w3.org/2000/svg">
<path fill-rule="evenodd" clip-rule="evenodd" d="M5.81429 1.81897C5.4382 1.64539 4.99261 1.80956 4.81903 2.18565C4.64545 2.56173 4.80962 3.00733 5.18571 3.18091C6.62332 3.84442 7.45434 4.56014 7.92291 5.24994H6C5.0335 5.24994 4.25 6.03344 4.25 6.99994V12.5857C4.25 13.0499 4.43437 13.495 4.76256 13.8232L11.7865 20.8471C12.4533 21.5139 13.5286 21.5325 14.218 20.889L20.2317 15.2762C20.9709 14.5864 20.9733 13.4155 20.2371 12.7225L12.8028 5.72559C12.4782 5.42006 12.0492 5.24994 11.6034 5.24994H9.62464C9.09375 3.98691 7.93 2.79545 5.81429 1.81897ZM8.47106 6.74994H6C5.86193 6.74994 5.75 6.86187 5.75 6.99994V12.5857C5.75 12.652 5.77634 12.7156 5.82322 12.7625L12.8472 19.7865C12.9424 19.8817 13.0961 19.8844 13.1945 19.7925L19.2083 14.1796C19.3139 14.0811 19.3142 13.9138 19.209 13.8148L11.7748 6.81789C11.7284 6.77424 11.6671 6.74994 11.6034 6.74994H9.97557C10.0086 7.25673 9.96115 7.74603 9.87277 8.19991C10.54 8.52404 11 9.20827 11 9.99994C11 11.1045 10.1046 11.9999 9 11.9999C7.89543 11.9999 7 11.1045 7 9.99994C7 9.1191 7.56943 8.37126 8.36025 8.10445C8.46226 7.66992 8.51565 7.21472 8.47106 6.74994Z" fill="#363636"/>
</svg>
