<svg width="24" height="24" viewBox="0 0 24 24" fill="none" xmlns="http://www.w3.org/2000/svg">
<path fill-rule="evenodd" clip-rule="evenodd" d="M20.4999 8.99995C20.3782 9.00044 20.2571 9.01725 20.1399 9.04995V8.44995C20.1399 6.7931 18.7968 5.44995 17.1399 5.44995H10.6199C10.038 5.47216 9.47507 5.66327 8.9999 5.99995C8.49288 6.31752 8.08969 6.77632 7.8399 7.31995L6.8399 9.85995C6.71429 10.167 6.44457 10.3918 6.1199 10.46L3.4499 11C3.0022 11.0929 2.59986 11.3364 2.3099 11.69C2.01751 12.0633 1.86218 12.5258 1.8699 13V15.48C1.8699 16.5845 2.76533 17.48 3.8699 17.48H4.2999C4.49977 18.817 5.64804 19.8063 6.9999 19.8063C8.35177 19.8063 9.50004 18.817 9.6999 17.48H13.2999C13.5055 18.8307 14.6781 19.8215 16.0442 19.7988C17.4104 19.776 18.5493 18.7468 18.7099 17.39C19.027 17.2953 19.3156 17.1235 19.5499 16.89C19.9255 16.5166 20.1377 16.0095 20.1399 15.48V15C20.2571 15.0326 20.3782 15.0495 20.4999 15.05C20.9065 15.0502 21.2959 14.8853 21.5786 14.5931C21.8614 14.3009 22.0135 13.9064 21.9999 13.5V10.5C21.9999 9.67152 21.3283 8.99995 20.4999 8.99995ZM7.9299 17.81C7.82457 17.9207 7.70322 18.0151 7.5699 18.09L7.4399 18.16C7.15886 18.28 6.84095 18.28 6.5599 18.16L6.4299 18.09C6.34923 18.0517 6.275 18.0011 6.2099 17.94C6.15855 17.902 6.1116 17.8583 6.0699 17.81C6.02091 17.7507 5.9774 17.6871 5.9399 17.62C5.73547 17.3023 5.69399 16.9065 5.82814 16.5533C5.96229 16.2002 6.25613 15.9317 6.6199 15.83C6.86194 15.723 7.13786 15.723 7.3799 15.83C7.74368 15.9317 8.03752 16.2002 8.17167 16.5533C8.30582 16.9065 8.26434 17.3023 8.0599 17.62C8.02241 17.6871 7.9789 17.7507 7.9299 17.81ZM16.5699 18.09C16.7032 18.0151 16.8246 17.9207 16.9299 17.81C16.9789 17.7507 17.0224 17.6871 17.0599 17.62C17.2643 17.3023 17.3058 16.9065 17.1717 16.5533C17.0375 16.2002 16.7437 15.9317 16.3799 15.83C16.1379 15.723 15.8619 15.723 15.6199 15.83C15.2561 15.9317 14.9623 16.2002 14.8281 16.5533C14.694 16.9065 14.7355 17.3023 14.9399 17.62C14.9774 17.6871 15.0209 17.7507 15.0699 17.81C15.1752 17.9207 15.2966 18.0151 15.4299 18.09L15.5599 18.16C15.841 18.28 16.1589 18.28 16.4399 18.16L16.5699 18.09ZM18.6399 15.45C18.637 15.5816 18.5832 15.707 18.4899 15.8C18.0231 14.8259 17.0276 14.217 15.9478 14.245C14.868 14.2731 13.9055 14.9329 13.4899 15.93H9.5399C9.11385 14.9032 8.11154 14.2339 6.9999 14.2339C5.88827 14.2339 4.88596 14.9032 4.4599 15.93H3.8699C3.73432 15.9319 3.60398 15.8776 3.5099 15.78C3.41936 15.686 3.36912 15.5604 3.3699 15.43V13C3.36976 12.7678 3.5326 12.5673 3.7599 12.52L6.3999 11.96C7.2226 11.7812 7.9017 11.2034 8.2099 10.42L9.2099 7.88995C9.32367 7.6149 9.51471 7.3787 9.7599 7.20995C10.0187 7.05444 10.3186 6.98121 10.6199 6.99995H17.1399C17.5383 6.99693 17.9208 7.15571 18.1999 7.43995C18.4813 7.72099 18.6396 8.10226 18.6399 8.49995V15.45ZM9.6599 11.66C9.89074 11.8183 10.1733 11.8827 10.4499 11.84H16.4999C16.7657 11.8415 17.0212 11.7371 17.2099 11.55C17.4021 11.3564 17.5069 11.0927 17.4999 10.82L17.4199 8.38995L17.2999 8.12995C17.0718 7.95425 16.787 7.8688 16.4999 7.88995H11.1899C10.9876 7.89106 10.7898 7.95004 10.6199 8.05995C10.4529 8.18095 10.3244 8.34764 10.2499 8.53995L9.4199 10.93V11.24C9.47156 11.3943 9.55311 11.5371 9.6599 11.66ZM11.5399 9.38995H15.9999V10.34H11.2099L11.5399 9.38995Z" fill="#363636"/>
</svg>
