<svg width="24" height="24" viewBox="0 0 24 24" fill="none" xmlns="http://www.w3.org/2000/svg">
<path fill-rule="evenodd" clip-rule="evenodd" d="M8.50131 2.02C10.264 2.23349 11.6319 3.65992 11.7713 5.43L11.7756 5.59665L11.7756 5.59673C11.7842 5.92979 11.7927 6.26285 11.8013 6.64C11.8165 6.72601 11.8165 6.81399 11.8013 6.9L11.8011 6.91101C11.7911 7.342 11.7749 8.04 11.0313 8.04C10.2713 8.04 10.2713 7.42 10.2713 6.99V5.56C10.1687 4.54864 9.40351 3.73023 8.40131 3.56L7.06131 3.5C6.38497 3.52146 5.84634 4.07333 5.84131 4.75V11.75C5.84131 12.1642 5.50553 12.5 5.09131 12.5C4.6771 12.5 4.34131 12.1642 4.34131 11.75V4.75C4.34661 3.24507 5.55654 2.0218 7.06131 2L8.50131 2.02ZM21.8013 14.56C21.5521 14.2207 21.2021 13.9688 20.8013 13.84L20.2413 13.67L19.4713 11.81C19.2191 11.2926 18.8234 10.8587 18.3313 10.56C17.8392 10.2336 17.2618 10.0597 16.6713 10.06H11.7813C11.0478 10.0506 10.3363 10.3103 9.78131 10.79L7.06131 13.15C6.78034 13.3981 6.43257 13.5581 6.06131 13.61L3.69131 14.02C2.76622 14.1938 2.08749 14.9891 2.06131 15.93L2.00131 17.93C1.98218 18.458 2.17271 18.972 2.53131 19.36C2.89631 19.754 3.40445 19.9846 3.94131 20H4.36131C4.56118 21.337 5.70945 22.3264 7.06131 22.3264C8.41318 22.3264 9.56145 21.337 9.76131 20H14.3613C14.5612 21.337 15.7095 22.3264 17.0613 22.3264C18.4132 22.3264 19.5615 21.337 19.7613 20H20.2013C21.3059 20 22.2013 19.1046 22.2013 18V15.8C22.2101 15.3536 22.0693 14.9171 21.8013 14.56ZM15.7613 11.56H16.6713C16.9663 11.5616 17.2545 11.6484 17.5013 11.81C17.747 11.9739 17.9384 12.2071 18.0513 12.48L18.6213 13.84H15.7613V11.56ZM11.7613 11.56C11.3936 11.5548 11.0371 11.6867 10.7613 11.93L8.60131 13.84H14.2613V11.56H11.7613ZM7.99131 20.37C7.88598 20.4808 7.76463 20.5752 7.63131 20.65L7.50131 20.72C7.22027 20.8401 6.90236 20.8401 6.62131 20.72L6.49131 20.65C6.41064 20.6117 6.33642 20.5611 6.27131 20.5C6.21996 20.462 6.17301 20.4184 6.13131 20.37C6.08232 20.3107 6.03881 20.2471 6.00131 20.18C5.79688 19.8624 5.7554 19.4665 5.88955 19.1134C6.0237 18.7603 6.31754 18.4918 6.68131 18.39C6.92335 18.283 7.19927 18.283 7.44131 18.39C7.80509 18.4918 8.09893 18.7603 8.23308 19.1134C8.36723 19.4665 8.32575 19.8624 8.12131 20.18C8.08382 20.2471 8.04031 20.3107 7.99131 20.37ZM17.8613 20.5C17.9071 20.4592 17.9505 20.4158 17.9913 20.37C18.0403 20.3107 18.0838 20.2471 18.1213 20.18C18.3257 19.8624 18.3672 19.4665 18.2331 19.1134C18.0989 18.7603 17.8051 18.4918 17.4413 18.39C17.1993 18.283 16.9234 18.283 16.6813 18.39C16.3175 18.4918 16.0237 18.7603 15.8895 19.1134C15.7554 19.4665 15.7969 19.8624 16.0013 20.18C16.0388 20.2471 16.0823 20.3107 16.1313 20.37C16.2367 20.4808 16.358 20.5752 16.4913 20.65L16.6213 20.72C16.9024 20.8401 17.2203 20.8401 17.5013 20.72L17.6313 20.65C17.7137 20.6094 17.791 20.5591 17.8613 20.5ZM20.7013 18.01C20.6984 18.1417 20.6446 18.2671 20.5513 18.36C20.461 18.4571 20.3339 18.5116 20.2013 18.51H19.6013C19.1753 17.4833 18.1729 16.814 17.0613 16.814C15.9497 16.814 14.9474 17.4833 14.5213 18.51H9.60131C9.17526 17.4833 8.17295 16.814 7.06131 16.814C5.94968 16.814 4.94737 17.4833 4.52131 18.51H3.97131C3.84149 18.5029 3.71953 18.4455 3.63131 18.35C3.53887 18.2539 3.49161 18.123 3.50131 17.99L3.56131 15.99C3.56704 15.8765 3.60911 15.7678 3.68131 15.68C3.76136 15.5937 3.86616 15.5343 3.98131 15.51L5.49131 15.24V15.3H20.2413H20.3413C20.5546 15.3622 20.7013 15.5578 20.7013 15.78V18.01ZM14.0613 2C13.6494 2.00539 13.3167 2.33804 13.3113 2.75V6.75C13.3113 7.16421 13.6471 7.5 14.0613 7.5C14.4755 7.5 14.8113 7.16421 14.8113 6.75V2.75C14.8059 2.33804 14.4733 2.00539 14.0613 2ZM7.53389 5.17672C7.67267 5.03419 7.8624 4.95263 8.06131 4.95C8.46775 4.95538 8.79593 5.28356 8.80131 5.69C8.80555 6.11361 8.81876 6.55695 8.83258 7.0208C8.85138 7.65194 8.87131 8.32104 8.87131 9.03V9.26V9.45C8.90169 9.84902 8.61744 10.2032 8.22131 10.26H8.12131C7.75917 10.2693 7.44654 10.008 7.39131 9.65C7.3755 9.50042 7.3755 9.34958 7.39131 9.2V9.07C7.32131 7.83 7.32131 6.71 7.32131 5.71C7.31864 5.51108 7.39511 5.31925 7.53389 5.17672Z" fill="#363636"/>
</svg>
